<mxfile host="app.diagrams.net" agent="Mozilla/5.0 (Windows NT 10.0; Win64; x64; rv:138.0) Gecko/20100101 Firefox/138.0" version="26.2.14">
  <diagram name="Page-1" id="-cZd0hwMgaCJananFPTG">
    <mxGraphModel dx="1058" dy="776" grid="1" gridSize="10" guides="1" tooltips="1" connect="1" arrows="1" fold="1" page="1" pageScale="1" pageWidth="827" pageHeight="1169" math="0" shadow="0">
      <root>
        <mxCell id="0" />
        <mxCell id="1" parent="0" />
        <mxCell id="Q_A1KULQo6O-BCavjU99-38" value="/cmd" style="edgeStyle=orthogonalEdgeStyle;rounded=0;orthogonalLoop=1;jettySize=auto;html=1;" parent="1" source="1z4OQr_VBR6PRiINcEbp-6" target="Q_A1KULQo6O-BCavjU99-36" edge="1">
          <mxGeometry relative="1" as="geometry" />
        </mxCell>
        <mxCell id="1z4OQr_VBR6PRiINcEbp-6" value="" style="sketch=0;outlineConnect=0;fontColor=#232F3E;gradientColor=none;fillColor=#232F3D;strokeColor=none;dashed=0;verticalLabelPosition=bottom;verticalAlign=top;align=center;html=1;fontSize=12;fontStyle=0;aspect=fixed;pointerEvents=1;shape=mxgraph.aws4.user;" parent="1" vertex="1">
          <mxGeometry y="200" width="40" height="40" as="geometry" />
        </mxCell>
        <mxCell id="1z4OQr_VBR6PRiINcEbp-13" value="*.lambda-url.*.on.aws/" style="edgeStyle=orthogonalEdgeStyle;rounded=0;orthogonalLoop=1;jettySize=auto;html=1;" parent="1" source="Q_A1KULQo6O-BCavjU99-36" target="1z4OQr_VBR6PRiINcEbp-12" edge="1">
          <mxGeometry relative="1" as="geometry">
            <mxPoint as="offset" />
            <mxPoint x="160" y="220" as="sourcePoint" />
          </mxGeometry>
        </mxCell>
        <mxCell id="1z4OQr_VBR6PRiINcEbp-16" value="3 sec reply / ack" style="edgeStyle=orthogonalEdgeStyle;rounded=0;orthogonalLoop=1;jettySize=auto;html=1;curved=1;exitX=0.5;exitY=0;exitDx=0;exitDy=0;exitPerimeter=0;labelBackgroundColor=default;" parent="1" source="1z4OQr_VBR6PRiINcEbp-12" target="Q_A1KULQo6O-BCavjU99-36" edge="1">
          <mxGeometry relative="1" as="geometry">
            <Array as="points">
              <mxPoint x="340" y="160" />
              <mxPoint x="140" y="160" />
            </Array>
            <mxPoint x="140" y="200" as="targetPoint" />
          </mxGeometry>
        </mxCell>
        <mxCell id="1z4OQr_VBR6PRiINcEbp-21" value="follow-up / message" style="edgeStyle=orthogonalEdgeStyle;rounded=0;orthogonalLoop=1;jettySize=auto;html=1;curved=1;exitX=0.5;exitY=0;exitDx=0;exitDy=0;exitPerimeter=0;" parent="1" source="1z4OQr_VBR6PRiINcEbp-18" target="Q_A1KULQo6O-BCavjU99-36" edge="1">
          <mxGeometry relative="1" as="geometry">
            <mxPoint x="600" y="199.9999999999999" as="sourcePoint" />
            <mxPoint x="140" y="200" as="targetPoint" />
            <Array as="points">
              <mxPoint x="660" y="100" />
              <mxPoint x="140" y="100" />
            </Array>
            <mxPoint as="offset" />
          </mxGeometry>
        </mxCell>
        <mxCell id="Q_A1KULQo6O-BCavjU99-36" value="" style="shape=image;html=1;verticalAlign=top;verticalLabelPosition=bottom;labelBackgroundColor=#ffffff;imageAspect=0;aspect=fixed;image=https://cdn1.iconfinder.com/data/icons/unicons-line-vol-3/24/discord-128.png" parent="1" vertex="1">
          <mxGeometry x="120" y="200" width="40" height="40" as="geometry" />
        </mxCell>
        <mxCell id="1z4OQr_VBR6PRiINcEbp-12" value="Frontend lambda" style="sketch=0;points=[[0,0,0],[0.25,0,0],[0.5,0,0],[0.75,0,0],[1,0,0],[0,1,0],[0.25,1,0],[0.5,1,0],[0.75,1,0],[1,1,0],[0,0.25,0],[0,0.5,0],[0,0.75,0],[1,0.25,0],[1,0.5,0],[1,0.75,0]];outlineConnect=0;fontColor=#232F3E;fillColor=#ED7100;strokeColor=#ffffff;dashed=0;verticalLabelPosition=bottom;verticalAlign=top;align=center;html=1;fontSize=12;fontStyle=0;aspect=fixed;shape=mxgraph.aws4.resourceIcon;resIcon=mxgraph.aws4.lambda;" parent="1" vertex="1">
          <mxGeometry x="320" y="200" width="40" height="40" as="geometry" />
        </mxCell>
        <mxCell id="1z4OQr_VBR6PRiINcEbp-19" value="slow logic" style="edgeStyle=orthogonalEdgeStyle;rounded=0;orthogonalLoop=1;jettySize=auto;html=1;entryX=0;entryY=0.5;entryDx=0;entryDy=0;entryPerimeter=0;" parent="1" source="1z4OQr_VBR6PRiINcEbp-12" target="1z4OQr_VBR6PRiINcEbp-14" edge="1">
          <mxGeometry relative="1" as="geometry" />
        </mxCell>
        <mxCell id="1z4OQr_VBR6PRiINcEbp-14" value="Backend queue" style="sketch=0;points=[[0,0,0],[0.25,0,0],[0.5,0,0],[0.75,0,0],[1,0,0],[0,1,0],[0.25,1,0],[0.5,1,0],[0.75,1,0],[1,1,0],[0,0.25,0],[0,0.5,0],[0,0.75,0],[1,0.25,0],[1,0.5,0],[1,0.75,0]];outlineConnect=0;fontColor=#232F3E;fillColor=#E7157B;strokeColor=#ffffff;dashed=0;verticalLabelPosition=bottom;verticalAlign=top;align=center;html=1;fontSize=12;fontStyle=0;aspect=fixed;shape=mxgraph.aws4.resourceIcon;resIcon=mxgraph.aws4.sqs;" parent="1" vertex="1">
          <mxGeometry x="480" y="200" width="40" height="40" as="geometry" />
        </mxCell>
        <mxCell id="1z4OQr_VBR6PRiINcEbp-20" style="edgeStyle=orthogonalEdgeStyle;rounded=0;orthogonalLoop=1;jettySize=auto;html=1;entryX=0;entryY=0.5;entryDx=0;entryDy=0;entryPerimeter=0;" parent="1" source="1z4OQr_VBR6PRiINcEbp-14" target="1z4OQr_VBR6PRiINcEbp-18" edge="1">
          <mxGeometry relative="1" as="geometry" />
        </mxCell>
        <mxCell id="nnOHdXQhvIak4NgPmfdH-15" value="manage tasks" style="edgeStyle=orthogonalEdgeStyle;rounded=0;orthogonalLoop=1;jettySize=auto;html=1;curved=1;" edge="1" parent="1" target="nnOHdXQhvIak4NgPmfdH-13">
          <mxGeometry x="0.5385" y="-20" relative="1" as="geometry">
            <mxPoint x="660" y="260" as="sourcePoint" />
            <Array as="points">
              <mxPoint x="660" y="280" />
              <mxPoint x="820" y="280" />
            </Array>
            <mxPoint as="offset" />
          </mxGeometry>
        </mxCell>
        <mxCell id="1z4OQr_VBR6PRiINcEbp-18" value="Backend lambda" style="sketch=0;points=[[0,0,0],[0.25,0,0],[0.5,0,0],[0.75,0,0],[1,0,0],[0,1,0],[0.25,1,0],[0.5,1,0],[0.75,1,0],[1,1,0],[0,0.25,0],[0,0.5,0],[0,0.75,0],[1,0.25,0],[1,0.5,0],[1,0.75,0]];outlineConnect=0;fontColor=#232F3E;fillColor=#ED7100;strokeColor=#ffffff;dashed=0;verticalLabelPosition=bottom;verticalAlign=top;align=center;html=1;fontSize=12;fontStyle=0;aspect=fixed;shape=mxgraph.aws4.resourceIcon;resIcon=mxgraph.aws4.lambda;" parent="1" vertex="1">
          <mxGeometry x="640" y="200" width="40" height="40" as="geometry" />
        </mxCell>
        <mxCell id="Q_A1KULQo6O-BCavjU99-33" style="edgeStyle=entityRelationEdgeStyle;rounded=0;orthogonalLoop=1;jettySize=auto;html=1;dashed=1;endArrow=classic;startFill=1;endFill=1;startSize=3;endSize=3;entryX=1;entryY=0.5;entryDx=0;entryDy=0;entryPerimeter=0;startArrow=classic;exitX=0;exitY=0.25;exitDx=0;exitDy=0;exitPerimeter=0;" parent="1" source="1z4OQr_VBR6PRiINcEbp-18" target="1z4OQr_VBR6PRiINcEbp-28" edge="1">
          <mxGeometry relative="1" as="geometry">
            <mxPoint x="720" y="180" as="targetPoint" />
            <Array as="points">
              <mxPoint x="620" y="210" />
              <mxPoint x="610" y="210" />
            </Array>
          </mxGeometry>
        </mxCell>
        <mxCell id="1z4OQr_VBR6PRiINcEbp-28" value="&lt;div&gt;DynamoDB tables&lt;/div&gt;" style="sketch=0;points=[[0,0,0],[0.25,0,0],[0.5,0,0],[0.75,0,0],[1,0,0],[0,1,0],[0.25,1,0],[0.5,1,0],[0.75,1,0],[1,1,0],[0,0.25,0],[0,0.5,0],[0,0.75,0],[1,0.25,0],[1,0.5,0],[1,0.75,0]];outlineConnect=0;fontColor=#232F3E;fillColor=#C925D1;strokeColor=#ffffff;dashed=0;verticalLabelPosition=bottom;verticalAlign=top;align=center;html=1;fontSize=12;fontStyle=0;aspect=fixed;shape=mxgraph.aws4.resourceIcon;resIcon=mxgraph.aws4.dynamodb;" parent="1" vertex="1">
          <mxGeometry x="480" y="120" width="40" height="40" as="geometry" />
        </mxCell>
        <mxCell id="1z4OQr_VBR6PRiINcEbp-27" value="Savegame bucket" style="sketch=0;points=[[0,0,0],[0.25,0,0],[0.5,0,0],[0.75,0,0],[1,0,0],[0,1,0],[0.25,1,0],[0.5,1,0],[0.75,1,0],[1,1,0],[0,0.25,0],[0,0.5,0],[0,0.75,0],[1,0.25,0],[1,0.5,0],[1,0.75,0]];outlineConnect=0;fontColor=#232F3E;fillColor=#7AA116;strokeColor=#ffffff;dashed=0;verticalLabelPosition=bottom;verticalAlign=top;align=center;html=1;fontSize=12;fontStyle=0;aspect=fixed;shape=mxgraph.aws4.resourceIcon;resIcon=mxgraph.aws4.s3;" parent="1" vertex="1">
          <mxGeometry x="320" y="360" width="40" height="40" as="geometry" />
        </mxCell>
        <mxCell id="nnOHdXQhvIak4NgPmfdH-3" value="EventBridge" style="sketch=0;points=[[0,0,0],[0.25,0,0],[0.5,0,0],[0.75,0,0],[1,0,0],[0,1,0],[0.25,1,0],[0.5,1,0],[0.75,1,0],[1,1,0],[0,0.25,0],[0,0.5,0],[0,0.75,0],[1,0.25,0],[1,0.5,0],[1,0.75,0]];outlineConnect=0;fontColor=#232F3E;fillColor=#E7157B;strokeColor=#ffffff;dashed=0;verticalLabelPosition=bottom;verticalAlign=top;align=center;html=1;fontSize=12;fontStyle=0;aspect=fixed;shape=mxgraph.aws4.resourceIcon;resIcon=mxgraph.aws4.eventbridge;" vertex="1" parent="1">
          <mxGeometry x="800" y="200" width="40" height="40" as="geometry" />
        </mxCell>
        <mxCell id="Q_A1KULQo6O-BCavjU99-32" style="edgeStyle=entityRelationEdgeStyle;rounded=0;orthogonalLoop=1;jettySize=auto;html=1;dashed=1;endArrow=classic;startFill=1;entryX=0;entryY=0.5;entryDx=0;entryDy=0;entryPerimeter=0;endFill=1;startSize=3;endSize=3;startArrow=classic;exitX=1;exitY=0.25;exitDx=0;exitDy=0;exitPerimeter=0;" parent="1" source="1z4OQr_VBR6PRiINcEbp-12" target="1z4OQr_VBR6PRiINcEbp-28" edge="1">
          <mxGeometry relative="1" as="geometry">
            <mxPoint x="720" y="190" as="targetPoint" />
          </mxGeometry>
        </mxCell>
        <mxCell id="nnOHdXQhvIak4NgPmfdH-5" value="&lt;div&gt;EC2/ECS&lt;/div&gt;&lt;div&gt;events&lt;/div&gt;" style="rounded=0;orthogonalLoop=1;jettySize=auto;html=1;entryX=1;entryY=0.5;entryDx=0;entryDy=0;entryPerimeter=0;" edge="1" parent="1" source="nnOHdXQhvIak4NgPmfdH-3" target="1z4OQr_VBR6PRiINcEbp-18">
          <mxGeometry relative="1" as="geometry" />
        </mxCell>
        <mxCell id="nnOHdXQhvIak4NgPmfdH-9" value="game notifications" style="edgeStyle=orthogonalEdgeStyle;rounded=0;orthogonalLoop=1;jettySize=auto;html=1;" edge="1" parent="1" source="Q_A1KULQo6O-BCavjU99-5">
          <mxGeometry relative="1" as="geometry">
            <mxPoint x="500" y="260" as="targetPoint" />
          </mxGeometry>
        </mxCell>
        <mxCell id="Q_A1KULQo6O-BCavjU99-5" value="&lt;div&gt;lsdc2-pilot&lt;/div&gt;" style="sketch=0;outlineConnect=0;fontColor=#232F3E;gradientColor=none;fillColor=#232F3D;strokeColor=none;dashed=0;verticalLabelPosition=bottom;verticalAlign=top;align=center;html=1;fontSize=12;fontStyle=0;aspect=fixed;pointerEvents=1;shape=mxgraph.aws4.external_sdk;" parent="1" vertex="1">
          <mxGeometry x="480" y="360" width="40" height="45.91" as="geometry" />
        </mxCell>
        <mxCell id="nnOHdXQhvIak4NgPmfdH-10" value="&lt;div&gt;donwload/upload&lt;/div&gt;&lt;div&gt;game files&lt;/div&gt;" style="edgeStyle=orthogonalEdgeStyle;rounded=0;orthogonalLoop=1;jettySize=auto;html=1;entryX=0.5;entryY=0;entryDx=0;entryDy=0;entryPerimeter=0;startArrow=classic;startFill=1;" edge="1" parent="1" target="1z4OQr_VBR6PRiINcEbp-27">
          <mxGeometry relative="1" as="geometry">
            <mxPoint x="340" y="260" as="sourcePoint" />
          </mxGeometry>
        </mxCell>
        <mxCell id="nnOHdXQhvIak4NgPmfdH-11" value="EC2" style="sketch=0;points=[[0,0,0],[0.25,0,0],[0.5,0,0],[0.75,0,0],[1,0,0],[0,1,0],[0.25,1,0],[0.5,1,0],[0.75,1,0],[1,1,0],[0,0.25,0],[0,0.5,0],[0,0.75,0],[1,0.25,0],[1,0.5,0],[1,0.75,0]];outlineConnect=0;fontColor=#232F3E;fillColor=#ED7100;strokeColor=#ffffff;dashed=0;verticalLabelPosition=bottom;verticalAlign=top;align=center;html=1;fontSize=12;fontStyle=0;aspect=fixed;shape=mxgraph.aws4.resourceIcon;resIcon=mxgraph.aws4.ec2;" vertex="1" parent="1">
          <mxGeometry x="640" y="360" width="40" height="40" as="geometry" />
        </mxCell>
        <mxCell id="nnOHdXQhvIak4NgPmfdH-13" value="ECS" style="sketch=0;points=[[0,0,0],[0.25,0,0],[0.5,0,0],[0.75,0,0],[1,0,0],[0,1,0],[0.25,1,0],[0.5,1,0],[0.75,1,0],[1,1,0],[0,0.25,0],[0,0.5,0],[0,0.75,0],[1,0.25,0],[1,0.5,0],[1,0.75,0]];outlineConnect=0;fontColor=#232F3E;fillColor=#ED7100;strokeColor=#ffffff;dashed=0;verticalLabelPosition=bottom;verticalAlign=top;align=center;html=1;fontSize=12;fontStyle=0;aspect=fixed;shape=mxgraph.aws4.resourceIcon;resIcon=mxgraph.aws4.ecs;" vertex="1" parent="1">
          <mxGeometry x="800" y="360" width="40" height="40" as="geometry" />
        </mxCell>
        <mxCell id="nnOHdXQhvIak4NgPmfdH-14" value="&lt;div&gt;manage&lt;/div&gt;&lt;div&gt;Security Groups&lt;/div&gt;&lt;div&gt;Instances&lt;/div&gt;" style="edgeStyle=orthogonalEdgeStyle;rounded=0;orthogonalLoop=1;jettySize=auto;html=1;entryX=0.5;entryY=0;entryDx=0;entryDy=0;entryPerimeter=0;" edge="1" parent="1" target="nnOHdXQhvIak4NgPmfdH-11">
          <mxGeometry relative="1" as="geometry">
            <mxPoint x="660" y="260" as="sourcePoint" />
          </mxGeometry>
        </mxCell>
      </root>
    </mxGraphModel>
  </diagram>
</mxfile>
